<svg xmlns="http://www.w3.org/2000/svg" viewBox="0 0 512 512"><!--! Font Awesome Free 6.3.0 by @fontawesome - https://fontawesome.com License - https://fontawesome.com/license/free (Icons: CC BY 4.0, Fonts: SIL OFL 1.1, Code: MIT License) Copyright 2023 Fonticons, Inc. --><path d="M288 32c0 17.7 14.3 32 32 32h42c17.7 0 32 14.3 32 32s-14.3 32-32 32h42c-17.7 0-32 14.3-32 32s14.3 32 32 32h452c53 0 96-43 96-96s-43-96-96-96h420c-17.7 0-32 14.3-32 32zm64 352c0 17.7 14.3 32 32 32h42c53 0 96-43 96-96s-43-96-96-96h42c-17.7 0-32 14.3-32 32s14.3 32 32 32H416c17.7 0 32 14.3 32 32s-14.3 32-32 32h484c-17.7 0-32 14.3-32 32zM128 512h42c53 0 96-43 96-96s-43-96-96-96h42c-17.7 0-32 14.3-32 32s14.3 32 32 32H160c17.7 0 32 14.3 32 32s-14.3 32-32 32H128c-17.7 0-32 14.3-32 32s14.3 32 32 32z"/></svg>